HIERARCHY
ROOT Hips
{
	OFFSET 0.000000 83.214638 0.000000
	CHANNELS 6 Xposition Yposition Zposition Xrotation Yrotation Zrotation
	JOINT Pelvis
	{
		OFFSET 0.000000 0.000000 0.000000
		CHANNELS 3 Xrotation Yrotation Zrotation
		JOINT LeftUpLeg
		{
			OFFSET 8.479700 -4.795502 -0.379100
			CHANNELS 3 Xrotation Yrotation Zrotation
			JOINT LeftLeg
			{
				OFFSET 0.024144 -32.555107 0.112900
				CHANNELS 3 Xrotation Yrotation Zrotation
				JOINT LeftFoot
				{
					OFFSET -0.024144 -32.638630 -3.012600
					CHANNELS 3 Xrotation Yrotation Zrotation
					JOINT LeftToeBase
					{
						OFFSET 0.970200 -13.225400 11.864200
						CHANNELS 3 Xrotation Yrotation Zrotation
						End Site
						{
							OFFSET 0.000000 12.319262 0.000000
						}
					}
					JOINT LFootTongue
					{
						OFFSET 1.142400 -1.059800 6.665200
						CHANNELS 3 Xrotation Yrotation Zrotation
						End Site
						{
							OFFSET 0.000000 12.319262 0.000000
						}
					}
				}
				JOINT LeftPantLeg
				{
					OFFSET 0.918482 -16.533964 -2.284700
					CHANNELS 3 Xrotation Yrotation Zrotation
					End Site
					{
						OFFSET 0.350399 24.744368 0.000000
					}
				}
			}
		}
		JOINT RightUpLeg
		{
			OFFSET -8.479700 -4.795502 -0.379100
			CHANNELS 3 Xrotation Yrotation Zrotation
			JOINT RightLeg
			{
				OFFSET -0.023144 -32.555092 0.112900
				CHANNELS 3 Xrotation Yrotation Zrotation
				JOINT RightFoot
				{
					OFFSET 0.023144 -32.638641 -3.012700
					CHANNELS 3 Xrotation Yrotation Zrotation
					JOINT RightToeBase
					{
						OFFSET -0.970200 -13.225400 11.864200
						CHANNELS 3 Xrotation Yrotation Zrotation
						End Site
						{
							OFFSET 0.000000 12.319244 0.000000
						}
					}
					JOINT RFootTongue
					{
						OFFSET -1.142200 -1.059800 6.665200
						CHANNELS 3 Xrotation Yrotation Zrotation
						End Site
						{
							OFFSET 0.000000 12.319243 0.000000
						}
					}
				}
				JOINT RightPantLeg
				{
					OFFSET -0.919482 -16.533978 -2.284800
					CHANNELS 3 Xrotation Yrotation Zrotation
					End Site
					{
						OFFSET -0.350400 24.744419 0.000000
					}
				}
			}
		}
	}
	JOINT Spine
	{
		OFFSET 0.000000 7.722000 1.166200
		CHANNELS 3 Xrotation Yrotation Zrotation
		JOINT Spine1
		{
			OFFSET 0.000000 12.024101 0.248800
			CHANNELS 3 Xrotation Yrotation Zrotation
			JOINT Spine2
			{
				OFFSET 0.000000 11.502998 -0.491200
				CHANNELS 3 Xrotation Yrotation Zrotation
				JOINT Neck
				{
					OFFSET 0.000000 18.430702 -3.123100
					CHANNELS 3 Xrotation Yrotation Zrotation
					JOINT Head
					{
						OFFSET 0.000000 9.051102 1.034000
						CHANNELS 3 Xrotation Yrotation Zrotation
						JOINT HairB
						{
							OFFSET 0.208400 24.786102 24.822300
							CHANNELS 3 Xrotation Yrotation Zrotation
							End Site
							{
								OFFSET 0.000000 32.263779 0.000000
							}
						}
						JOINT HairA
						{
							OFFSET -7.081100 24.428299 23.196600
							CHANNELS 3 Xrotation Yrotation Zrotation
							End Site
							{
								OFFSET 0.000000 32.263779 0.000000
							}
						}
						JOINT Hat
						{
							OFFSET 16.728800 15.048294 -15.439601
							CHANNELS 3 Xrotation Yrotation Zrotation
							End Site
							{
								OFFSET 0.000000 32.263779 0.000000
							}
						}
					}
				}
				JOINT LeftShoulder
				{
					OFFSET 6.197800 13.665199 -4.064700
					CHANNELS 3 Xrotation Yrotation Zrotation
					JOINT LeftArm
					{
						OFFSET 7.778100 -0.187103 -1.709300
						CHANNELS 3 Xrotation Yrotation Zrotation
						JOINT LeftForeArm
						{
							OFFSET 22.049376 0.000000 0.000000
							CHANNELS 3 Xrotation Yrotation Zrotation
							JOINT LeftHand
							{
								OFFSET 23.009392 0.000000 0.000000
								CHANNELS 3 Xrotation Yrotation Zrotation
								JOINT LeftHandThumb1
								{
									OFFSET 3.507191 -2.063065 3.133727
									CHANNELS 3 Xrotation Yrotation Zrotation
									JOINT LeftHandThumb2
									{
										OFFSET 3.101337 -1.790558 1.790558
										CHANNELS 3 Xrotation Yrotation Zrotation
										JOINT LeftHandThumb3
										{
											OFFSET 3.058640 -1.765907 1.765906
											CHANNELS 3 Xrotation Yrotation Zrotation
											End Site
											{
												OFFSET -0.415260 3.926476 -0.049563
											}
										}
									}
								}
								JOINT LeftHandIndex1
								{
									OFFSET 11.334419 -0.901459 3.706815
									CHANNELS 3 Xrotation Yrotation Zrotation
									JOINT LeftHandIndex2
									{
										OFFSET 3.283112 0.000000 0.000000
										CHANNELS 3 Xrotation Yrotation Zrotation
										JOINT LeftHandIndex3
										{
											OFFSET 3.323853 0.000000 0.000000
											CHANNELS 3 Xrotation Yrotation Zrotation
											End Site
											{
												OFFSET -1.135597 3.097809 0.402452
											}
										}
									}
								}
								JOINT LeftHandMiddle1
								{
									OFFSET 11.335861 0.000000 0.000000
									CHANNELS 3 Xrotation Yrotation Zrotation
									JOINT LeftHandMiddle2
									{
										OFFSET 3.410492 0.000000 0.000000
										CHANNELS 3 Xrotation Yrotation Zrotation
										JOINT LeftHandMiddle3
										{
											OFFSET 3.312172 0.000000 0.000000
											CHANNELS 3 Xrotation Yrotation Zrotation
											End Site
											{
												OFFSET -1.150200 3.080154 0.400270
											}
										}
									}
								}
								JOINT LeftHandRing1
								{
									OFFSET 11.514786 -0.013176 -3.003090
									CHANNELS 3 Xrotation Yrotation Zrotation
									JOINT LeftHandRing2
									{
										OFFSET 3.053307 0.000000 0.000000
										CHANNELS 3 Xrotation Yrotation Zrotation
										JOINT LeftHandRing3
										{
											OFFSET 3.295807 0.000000 0.000000
											CHANNELS 3 Xrotation Yrotation Zrotation
											End Site
											{
												OFFSET -1.281006 3.013344 0.375733
											}
										}
									}
								}
								JOINT LeftHandPinky1
								{
									OFFSET 10.518692 -0.960396 -5.730441
									CHANNELS 3 Xrotation Yrotation Zrotation
									JOINT LeftHandPinky2
									{
										OFFSET 2.861649 0.000000 0.000000
										CHANNELS 3 Xrotation Yrotation Zrotation
										JOINT LeftHandPinky3
										{
											OFFSET 2.863380 0.000000 0.000000
											CHANNELS 3 Xrotation Yrotation Zrotation
											End Site
											{
												OFFSET -0.843597 2.711159 0.369971
											}
										}
									}
								}
							}
							JOINT LSleeve
							{
								OFFSET 6.676277 -0.344902 -1.011730
								CHANNELS 3 Xrotation Yrotation Zrotation
								End Site
								{
									OFFSET 0.000000 14.885353 0.000000
								}
							}
						}
					}
				}
				JOINT RightShoulder
				{
					OFFSET -6.197800 13.665199 -4.064700
					CHANNELS 3 Xrotation Yrotation Zrotation
					JOINT RightArm
					{
						OFFSET -7.778100 -0.187103 -1.709300
						CHANNELS 3 Xrotation Yrotation Zrotation
						JOINT RightForeArm
						{
							OFFSET -22.049376 0.000000 0.000000
							CHANNELS 3 Xrotation Yrotation Zrotation
							JOINT RightHand
							{
								OFFSET -23.009392 0.000000 0.000000
								CHANNELS 3 Xrotation Yrotation Zrotation
								JOINT RightHandThumb1
								{
									OFFSET -3.507191 -2.063065 3.133727
									CHANNELS 3 Xrotation Yrotation Zrotation
									JOINT RightHandThumb2
									{
										OFFSET -3.101337 -1.790558 1.790558
										CHANNELS 3 Xrotation Yrotation Zrotation
										JOINT RightHandThumb3
										{
											OFFSET -3.058640 -1.765907 1.765906
											CHANNELS 3 Xrotation Yrotation Zrotation
											End Site
											{
												OFFSET 0.415260 3.926476 -0.049563
											}
										}
									}
								}
								JOINT RightHandIndex1
								{
									OFFSET -11.334419 -0.901459 3.706815
									CHANNELS 3 Xrotation Yrotation Zrotation
									JOINT RightHandIndex2
									{
										OFFSET -3.283112 0.000000 0.000000
										CHANNELS 3 Xrotation Yrotation Zrotation
										JOINT RightHandIndex3
										{
											OFFSET -3.323853 0.000000 0.000000
											CHANNELS 3 Xrotation Yrotation Zrotation
											End Site
											{
												OFFSET 1.135597 3.097809 0.402452
											}
										}
									}
								}
								JOINT RightHandMiddle1
								{
									OFFSET -11.335861 0.000000 0.000000
									CHANNELS 3 Xrotation Yrotation Zrotation
									JOINT RightHandMiddle2
									{
										OFFSET -3.410492 0.000000 0.000000
										CHANNELS 3 Xrotation Yrotation Zrotation
										JOINT RightHandMiddle3
										{
											OFFSET -3.312172 0.000000 0.000000
											CHANNELS 3 Xrotation Yrotation Zrotation
											End Site
											{
												OFFSET 1.150200 3.080154 0.400270
											}
										}
									}
								}
								JOINT RightHandRing1
								{
									OFFSET -11.514786 -0.013176 -3.003090
									CHANNELS 3 Xrotation Yrotation Zrotation
									JOINT RightHandRing2
									{
										OFFSET -3.053307 0.000000 0.000000
										CHANNELS 3 Xrotation Yrotation Zrotation
										JOINT RightHandRing3
										{
											OFFSET -3.295807 0.000000 0.000000
											CHANNELS 3 Xrotation Yrotation Zrotation
											End Site
											{
												OFFSET 1.281006 3.013344 0.375733
											}
										}
									}
								}
								JOINT RightHandPinky1
								{
									OFFSET -10.518692 -0.960396 -5.730441
									CHANNELS 3 Xrotation Yrotation Zrotation
									JOINT RightHandPinky2
									{
										OFFSET -2.861649 0.000000 0.000000
										CHANNELS 3 Xrotation Yrotation Zrotation
										JOINT RightHandPinky3
										{
											OFFSET -2.863380 0.000000 0.000000
											CHANNELS 3 Xrotation Yrotation Zrotation
											End Site
											{
												OFFSET 0.843597 2.711159 0.369971
											}
										}
									}
								}
							}
							JOINT RSleeve
							{
								OFFSET -6.676277 -0.344902 -1.011730
								CHANNELS 3 Xrotation Yrotation Zrotation
								End Site
								{
									OFFSET 0.000000 14.885353 0.000000
								}
							}
						}
					}
				}
				JOINT Backpack
				{
					OFFSET 0.000000 -2.471497 36.677502
					CHANNELS 3 Xrotation Yrotation Zrotation
					End Site
					{
						OFFSET 0.000000 20.427315 0.000000
					}
				}
				JOINT Hood
				{
					OFFSET 0.000000 18.754097 -10.431000
					CHANNELS 3 Xrotation Yrotation Zrotation
					JOINT Hood1
					{
						OFFSET 0.000000 -5.011002 -7.685901
						CHANNELS 3 Xrotation Yrotation Zrotation
						End Site
						{
							OFFSET 0.000000 9.175140 0.000000
						}
					}
				}
				JOINT LHoodieString
				{
					OFFSET 5.250500 16.397697 3.089900
					CHANNELS 3 Xrotation Yrotation Zrotation
					JOINT LHoodieString1
					{
						OFFSET 0.257700 -6.364304 3.694600
						CHANNELS 3 Xrotation Yrotation Zrotation
						JOINT LHoodieString2
						{
							OFFSET 0.000000 -9.643799 2.679100
							CHANNELS 3 Xrotation Yrotation Zrotation
							End Site
							{
								OFFSET 0.000000 10.009018 0.000000
							}
						}
					}
				}
				JOINT RHoodieString
				{
					OFFSET -5.250500 16.397697 3.089900
					CHANNELS 3 Xrotation Yrotation Zrotation
					JOINT RHoodieString1
					{
						OFFSET -0.257700 -6.364304 3.694600
						CHANNELS 3 Xrotation Yrotation Zrotation
						JOINT RHoodieString2
						{
							OFFSET 0.000000 -9.643799 2.679100
							CHANNELS 3 Xrotation Yrotation Zrotation
							End Site
							{
								OFFSET 0.000000 10.009018 0.000000
							}
						}
					}
				}
			}
			JOINT LBackpack_Strap
			{
				OFFSET 15.223200 -7.719803 -6.610900
				CHANNELS 3 Xrotation Yrotation Zrotation
				End Site
				{
					OFFSET 0.000000 16.040596 0.000000
				}
			}
			JOINT RBackpack_Strap
			{
				OFFSET -15.223000 -7.719803 -6.610900
				CHANNELS 3 Xrotation Yrotation Zrotation
				End Site
				{
					OFFSET 0.000000 16.040596 0.000000
				}
			}
		}
	}
	JOINT BoyFacialAnim_Joint
	{
		OFFSET 1.000000 -82.208099 -1.550900
		CHANNELS 3 Xrotation Yrotation Zrotation
		End Site
		{
			OFFSET 0.000000 30.012791 0.000000
		}
	}
}
MOTION
Frames: 5
Frame Time: 0.033333
0.180643 38.438515 -0.526489 -40.592736 -32.660926 -20.111859 -0.000000 0.000004 0.000001 -71.775671 -4.111416 23.839860 120.725957 -9.087132 -0.348068 -13.911988 -5.445630 -0.893638 -0.000000 -0.000000 -0.000000 -0.000000 -0.000000 0.000000 -0.000000 0.000002 -0.000000 -20.526686 26.295836 -7.713149 140.949860 10.575884 1.235571 -53.277183 -19.072284 23.491012 0.000001 0.000002 -0.000001 0.000001 0.000002 -0.000001 0.000000 -0.000000 0.000004 58.830755 2.977725 1.523395 10.726775 0.745572 -4.510849 17.512499 -0.081844 -4.552679 -10.635476 7.131045 2.437781 -15.497409 20.382750 10.535384 0.000000 0.000000 0.000000 0.000000 0.000000 0.000000 0.000000 0.000000 0.000000 -37.560037 -4.847150 1.305536 -72.777127 -19.268081 -68.966510 -0.000004 -51.105415 -0.000007 -122.252750 2.520538 23.342286 4.709216 9.560375 3.111990 19.473175 -1.474923 7.636924 -0.000003 -0.000000 -0.000002 -0.212248 3.932183 -36.714381 2.936736 5.075819 -60.083480 -0.000002 -0.000001 -0.000000 0.403334 5.503077 -52.416289 3.381083 5.305796 -64.991818 0.000003 0.000001 0.000001 -0.076380 5.733332 -61.028744 4.052304 5.568630 -72.066733 -0.000002 -0.000002 -0.000002 -6.569007 4.536659 -72.389910 3.295673 5.265305 -64.064695 -0.000001 0.000001 -0.000002 -0.000000 -0.000001 0.000002 -42.147093 -9.762371 -7.604374 -51.463023 45.171654 94.574447 0.000236 104.669644 -0.000228 -37.779900 -25.127013 -25.020506 8.378616 -4.907923 11.023910 21.622349 -18.178659 -18.375441 0.000004 -0.000001 0.000001 -0.918975 1.682440 12.426181 0.747204 -2.532095 32.878051 -0.000001 -0.000000 0.000003 3.413462 -7.185928 51.665115 6.296708 -4.359624 110.633055 -0.000000 0.000000 0.000001 -3.349101 -2.600797 57.013396 5.440713 -4.590918 99.696248 0.000000 -0.000000 0.000004 -3.996482 -3.303558 64.591391 4.059374 -4.618740 82.616903 0.000001 -0.000001 0.000000 -0.000000 -0.000004 -0.000000 -0.000000 -0.000001 -0.000001 -0.000000 -0.000001 -0.000001 -0.000000 -0.000001 -0.000001 -0.000000 -0.000001 -0.000001 -0.000000 -0.000001 -0.000001 0.000001 -0.000001 -0.000001 -0.000000 -0.000001 -0.000001 -0.000000 -0.000001 -0.000001 0.000001 -0.000001 -0.000001 -0.000001 0.000002 -0.000001 -0.000001 0.000002 -0.000001 -0.000000 0.000004 0.000001 
0.124983 38.456009 -0.594376 -40.565303 -32.642809 -20.104435 -0.000001 -0.000003 -0.000001 -71.756683 -4.226304 23.886447 120.626414 -9.187968 -0.347273 -13.822428 -5.436355 -0.968346 0.000000 0.000001 0.000000 0.000000 0.000001 0.000000 -0.000000 0.000001 -0.000000 -20.692978 26.049293 -7.547692 140.991920 10.541759 1.231333 -53.270073 -19.152769 23.276176 -0.000002 0.000002 -0.000001 -0.000002 0.000002 -0.000001 0.000000 0.000000 -0.000000 58.814732 2.974467 1.515854 10.734608 0.744713 -4.521338 17.520062 -0.085156 -4.562560 -10.626380 7.119782 2.460943 -15.542299 20.386158 10.545783 -0.000001 -0.000000 -0.000001 -0.000001 -0.000000 -0.000001 -0.000001 -0.000000 -0.000001 -37.559039 -4.830596 1.310665 -73.285935 -19.463797 -69.165426 -0.000004 -49.482634 -0.000021 -122.217493 3.139981 22.355310 4.709220 9.560367 3.111991 19.473177 -1.474918 7.636910 -0.000002 -0.000004 0.000003 -0.212814 3.933727 -36.747125 2.942143 5.078924 -60.144617 -0.000000 0.000001 -0.000003 0.405915 5.507053 -52.453162 3.387151 5.308625 -65.057470 0.000007 0.000001 0.000002 -0.074376 5.736792 -61.061420 4.055035 5.569508 -72.094901 -0.000001 0.000001 -0.000002 -6.565572 4.545138 -72.425209 3.299620 5.267223 -64.107828 -0.000003 0.000001 -0.000003 -0.000002 0.000001 0.000003 -42.139839 -9.769739 -7.575440 -51.815663 45.272126 94.913866 0.000120 103.657451 -0.000146 -37.420052 -24.461406 -24.583534 8.377150 -4.904139 11.021985 21.620211 -18.183873 -18.379192 0.000002 0.000000 0.000001 -0.920031 1.683573 12.434976 0.748114 -2.533485 32.898303 -0.000001 -0.000000 0.000004 3.413061 -7.186276 51.650235 6.296817 -4.359598 110.634680 0.000001 0.000001 -0.000002 -3.349035 -2.600435 57.010551 5.440874 -4.590882 99.698188 -0.000000 0.000000 0.000006 -3.996441 -3.303956 64.593837 4.058863 -4.618679 82.610530 -0.000000 -0.000001 -0.000002 -0.000000 0.000005 -0.000002 -0.000002 -0.000000 0.000001 -0.000002 -0.000000 0.000001 -0.000002 -0.000000 0.000001 -0.000002 -0.000000 0.000001 -0.000002 -0.000000 0.000002 0.000001 -0.000001 -0.000000 -0.000002 -0.000000 0.000001 -0.000002 -0.000000 0.000002 0.000001 -0.000001 -0.000000 -0.000002 0.000003 -0.000002 -0.000002 0.000003 -0.000002 -0.000001 -0.000003 -0.000001 
0.124983 38.456009 -0.594376 -40.565303 -32.642809 -20.104435 -0.000001 -0.000003 -0.000001 -71.756683 -4.226304 23.886447 120.626414 -9.187968 -0.347273 -13.822428 -5.436355 -0.968346 0.000000 0.000001 0.000000 0.000000 0.000001 0.000000 -0.000000 0.000001 -0.000000 -20.692978 26.049293 -7.547692 140.991920 10.541759 1.231333 -53.270073 -19.152769 23.276176 -0.000002 0.000002 -0.000001 -0.000002 0.000002 -0.000001 0.000000 0.000000 -0.000000 58.814732 2.974467 1.515854 10.734608 0.744713 -4.521338 17.520062 -0.085156 -4.562560 -10.626380 7.119782 2.460943 -15.542299 20.386158 10.545783 -0.000001 -0.000000 -0.000001 -0.000001 -0.000000 -0.000001 -0.000001 -0.000000 -0.000001 -37.559039 -4.830596 1.310665 -73.285935 -19.463797 -69.165426 -0.000004 -49.482634 -0.000021 -122.217493 3.139981 22.355310 4.709220 9.560367 3.111991 19.473177 -1.474918 7.636910 -0.000002 -0.000004 0.000003 -0.212814 3.933727 -36.747125 2.942143 5.078924 -60.144617 -0.000000 0.000001 -0.000003 0.405915 5.507053 -52.453162 3.387151 5.308625 -65.057470 0.000007 0.000001 0.000002 -0.074376 5.736792 -61.061420 4.055035 5.569508 -72.094901 -0.000001 0.000001 -0.000002 -6.565572 4.545138 -72.425209 3.299620 5.267223 -64.107828 -0.000003 0.000001 -0.000003 -0.000002 0.000001 0.000003 -42.139839 -9.769739 -7.575440 -51.815663 45.272126 94.913866 0.000120 103.657451 -0.000146 -37.420052 -24.461406 -24.583534 8.377150 -4.904139 11.021985 21.620211 -18.183873 -18.379192 0.000002 0.000000 0.000001 -0.920031 1.683573 12.434976 0.748114 -2.533485 32.898303 -0.000001 -0.000000 0.000004 3.413061 -7.186276 51.650235 6.296817 -4.359598 110.634680 0.000001 0.000001 -0.000002 -3.349035 -2.600435 57.010551 5.440874 -4.590882 99.698188 -0.000000 0.000000 0.000006 -3.996441 -3.303956 64.593837 4.058863 -4.618679 82.610530 -0.000000 -0.000001 -0.000002 -0.000000 0.000005 -0.000002 -0.000002 -0.000000 0.000001 -0.000002 -0.000000 0.000001 -0.000002 -0.000000 0.000001 -0.000002 -0.000000 0.000001 -0.000002 -0.000000 0.000002 0.000001 -0.000001 -0.000000 -0.000002 -0.000000 0.000001 -0.000002 -0.000000 0.000002 0.000001 -0.000001 -0.000000 -0.000002 0.000003 -0.000002 -0.000002 0.000003 -0.000002 -0.000001 -0.000003 -0.000001 
0.124983 38.456009 -0.594376 -40.565303 -32.642809 -20.104435 -0.000001 -0.000003 -0.000001 -71.756683 -4.226304 23.886447 120.626414 -9.187968 -0.347273 -13.822428 -5.436355 -0.968346 0.000000 0.000001 0.000000 0.000000 0.000001 0.000000 -0.000000 0.000001 -0.000000 -20.692978 26.049293 -7.547692 140.991920 10.541759 1.231333 -53.270073 -19.152769 23.276176 -0.000002 0.000002 -0.000001 -0.000002 0.000002 -0.000001 0.000000 0.000000 -0.000000 58.814732 2.974467 1.515854 10.734608 0.744713 -4.521338 17.520062 -0.085156 -4.562560 -10.626380 7.119782 2.460943 -15.542299 20.386158 10.545783 -0.000001 -0.000000 -0.000001 -0.000001 -0.000000 -0.000001 -0.000001 -0.000000 -0.000001 -37.559039 -4.830596 1.310665 -73.285935 -19.463797 -69.165426 -0.000004 -49.482634 -0.000021 -122.217493 3.139981 22.355310 4.709220 9.560367 3.111991 19.473177 -1.474918 7.636910 -0.000002 -0.000004 0.000003 -0.212814 3.933727 -36.747125 2.942143 5.078924 -60.144617 -0.000000 0.000001 -0.000003 0.405915 5.507053 -52.453162 3.387151 5.308625 -65.057470 0.000007 0.000001 0.000002 -0.074376 5.736792 -61.061420 4.055035 5.569508 -72.094901 -0.000001 0.000001 -0.000002 -6.565572 4.545138 -72.425209 3.299620 5.267223 -64.107828 -0.000003 0.000001 -0.000003 -0.000002 0.000001 0.000003 -42.139839 -9.769739 -7.575440 -51.815663 45.272126 94.913866 0.000120 103.657451 -0.000146 -37.420052 -24.461406 -24.583534 8.377150 -4.904139 11.021985 21.620211 -18.183873 -18.379192 0.000002 0.000000 0.000001 -0.920031 1.683573 12.434976 0.748114 -2.533485 32.898303 -0.000001 -0.000000 0.000004 3.413061 -7.186276 51.650235 6.296817 -4.359598 110.634680 0.000001 0.000001 -0.000002 -3.349035 -2.600435 57.010551 5.440874 -4.590882 99.698188 -0.000000 0.000000 0.000006 -3.996441 -3.303956 64.593837 4.058863 -4.618679 82.610530 -0.000000 -0.000001 -0.000002 -0.000000 0.000005 -0.000002 -0.000002 -0.000000 0.000001 -0.000002 -0.000000 0.000001 -0.000002 -0.000000 0.000001 -0.000002 -0.000000 0.000001 -0.000002 -0.000000 0.000002 0.000001 -0.000001 -0.000000 -0.000002 -0.000000 0.000001 -0.000002 -0.000000 0.000002 0.000001 -0.000001 -0.000000 -0.000002 0.000003 -0.000002 -0.000002 0.000003 -0.000002 -0.000001 -0.000003 -0.000001 
0.124983 38.456009 -0.594376 -40.565303 -32.642809 -20.104435 -0.000001 -0.000003 -0.000001 -71.756683 -4.226304 23.886447 120.626414 -9.187968 -0.347273 -13.822428 -5.436355 -0.968346 0.000000 0.000001 0.000000 0.000000 0.000001 0.000000 -0.000000 0.000001 -0.000000 -20.692978 26.049293 -7.547692 140.991920 10.541759 1.231333 -53.270073 -19.152769 23.276176 -0.000002 0.000002 -0.000001 -0.000002 0.000002 -0.000001 0.000000 0.000000 -0.000000 58.814732 2.974467 1.515854 10.734608 0.744713 -4.521338 17.520062 -0.085156 -4.562560 -10.626380 7.119782 2.460943 -15.542299 20.386158 10.545783 -0.000001 -0.000000 -0.000001 -0.000001 -0.000000 -0.000001 -0.000001 -0.000000 -0.000001 -37.559039 -4.830596 1.310665 -73.285935 -19.463797 -69.165426 -0.000004 -49.482634 -0.000021 -122.217493 3.139981 22.355310 4.709220 9.560367 3.111991 19.473177 -1.474918 7.636910 -0.000002 -0.000004 0.000003 -0.212814 3.933727 -36.747125 2.942143 5.078924 -60.144617 -0.000000 0.000001 -0.000003 0.405915 5.507053 -52.453162 3.387151 5.308625 -65.057470 0.000007 0.000001 0.000002 -0.074376 5.736792 -61.061420 4.055035 5.569508 -72.094901 -0.000001 0.000001 -0.000002 -6.565572 4.545138 -72.425209 3.299620 5.267223 -64.107828 -0.000003 0.000001 -0.000003 -0.000002 0.000001 0.000003 -42.139839 -9.769739 -7.575440 -51.815663 45.272126 94.913866 0.000120 103.657451 -0.000146 -37.420052 -24.461406 -24.583534 8.377150 -4.904139 11.021985 21.620211 -18.183873 -18.379192 0.000002 0.000000 0.000001 -0.920031 1.683573 12.434976 0.748114 -2.533485 32.898303 -0.000001 -0.000000 0.000004 3.413061 -7.186276 51.650235 6.296817 -4.359598 110.634680 0.000001 0.000001 -0.000002 -3.349035 -2.600435 57.010551 5.440874 -4.590882 99.698188 -0.000000 0.000000 0.000006 -3.996441 -3.303956 64.593837 4.058863 -4.618679 82.610530 -0.000000 -0.000001 -0.000002 -0.000000 0.000005 -0.000002 -0.000002 -0.000000 0.000001 -0.000002 -0.000000 0.000001 -0.000002 -0.000000 0.000001 -0.000002 -0.000000 0.000001 -0.000002 -0.000000 0.000002 0.000001 -0.000001 -0.000000 -0.000002 -0.000000 0.000001 -0.000002 -0.000000 0.000002 0.000001 -0.000001 -0.000000 -0.000002 0.000003 -0.000002 -0.000002 0.000003 -0.000002 -0.000001 -0.000003 -0.000001 
